<svg width="41" height="40" viewBox="0 0 41 40" fill="none" xmlns="http://www.w3.org/2000/svg"><g id="Vector"><path d="M32.1667 6.66667H8.83334C7.50726 6.66667 6.23549 7.19345 5.29781 8.13113C4.36012 9.06881 3.83334 10.3406 3.83334 11.6667V28.3333C3.83334 29.6594 4.36012 30.9312 5.29781 31.8689C6.23549 32.8065 7.50726 33.3333 8.83334 33.3333H32.1667C33.4928 33.3333 34.7645 32.8065 35.7022 31.8689C36.6399 30.9312 37.1667 29.6594 37.1667 28.3333V11.6667C37.1667 10.3406 36.6399 9.06881 35.7022 8.13113C34.7645 7.19345 33.4928 6.66667 32.1667 6.66667ZM31.05 10L20.5 17.9167L9.95001 10H31.05ZM32.1667 30H8.83334C8.39131 30 7.96739 29.8244 7.65483 29.5118C7.34227 29.1993 7.16667 28.7754 7.16667 28.3333V12.0833L19.5 21.3333C19.7885 21.5497 20.1394 21.6667 20.5 21.6667C20.8606 21.6667 21.2115 21.5497 21.5 21.3333L33.8333 12.0833V28.3333C33.8333 28.7754 33.6577 29.1993 33.3452 29.5118C33.0326 29.8244 32.6087 30 32.1667 30Z" fill="#00FFDD"/></g></svg>