<svg width="41" height="40" viewBox="0 0 41 40" fill="none" xmlns="http://www.w3.org/2000/svg"><g id="Vector"><path d="M20.5 1.66666C15.6891 1.61777 11.0556 3.48101 7.61789 6.84687C4.18015 10.2127 2.21944 14.8058 2.16667 19.6167C2.18521 23.4186 3.40824 27.1169 5.66011 30.1802C7.91197 33.2436 11.0768 35.5145 14.7 36.6667C15.6167 36.8333 15.95 36.2833 15.95 35.8C15.95 35.3167 15.95 34.25 15.95 32.75C10.85 33.8333 9.76667 30.35 9.76667 30.35C9.42716 29.2565 8.70539 28.3217 7.73334 27.7167C6.06667 26.6167 7.86667 26.6333 7.86667 26.6333C8.44275 26.7103 8.99393 26.9168 9.47885 27.2372C9.96377 27.5576 10.3699 27.9836 10.6667 28.4833C11.1839 29.3802 12.0326 30.0381 13.03 30.3156C14.0275 30.593 15.094 30.4677 16 29.9667C16.0932 29.054 16.5065 28.2037 17.1667 27.5667C13.1 27.1167 8.83333 25.5833 8.83333 18.7C8.79697 16.9045 9.46041 15.1652 10.6833 13.85C10.1264 12.3084 10.1921 10.6105 10.8667 9.11666C10.8667 9.11666 12.4167 8.63333 15.8667 10.95C18.8698 10.1497 22.0302 10.1497 25.0333 10.95C28.5333 8.63333 30.0333 9.11666 30.0333 9.11666C30.7079 10.6105 30.7736 12.3084 30.2167 13.85C31.468 15.1411 32.1674 16.8687 32.1667 18.6667C32.1667 25.5667 27.8667 27.0833 23.8333 27.5333C24.275 27.9621 24.6161 28.4834 24.8323 29.0598C25.0484 29.6361 25.1341 30.2532 25.0833 30.8667V35.7833C25.0833 35.7833 25.4167 36.8333 26.3333 36.65C29.9463 35.4907 33.1004 33.2193 35.3453 30.1602C37.5902 27.1012 38.811 23.411 38.8333 19.6167C38.7806 14.8058 36.8199 10.2127 33.3821 6.84687C29.9444 3.48101 25.3109 1.61777 20.5 1.66666Z" fill="#00FFDD"/></g></svg>