<svg width="41" height="40" viewBox="0 0 41 40" fill="none" xmlns="http://www.w3.org/2000/svg"><g id="Vector"><path d="M13 8.75C13 10.8211 11.3211 12.5 9.25 12.5C7.17893 12.5 5.5 10.8211 5.5 8.75C5.5 6.67893 7.17893 5 9.25 5C11.3211 5 13 6.67893 13 8.75Z" fill="#00FFDD"/><path d="M25.75 14C24.4726 13.9956 23.2068 14.2432 22.0252 14.7285C20.8436 15.2138 19.7692 15.9273 18.8636 16.8282C17.958 17.7292 17.239 18.7999 16.7476 19.979C16.2562 21.1581 16.0022 22.4226 16 23.7V33.5C16 33.8978 16.158 34.2794 16.4393 34.5607C16.7206 34.842 17.1022 35 17.5 35H21C21.3978 35 21.7794 34.842 22.0607 34.5607C22.342 34.2794 22.5 33.8978 22.5 33.5V23.7C22.4997 23.2457 22.5951 22.7964 22.7801 22.3814C22.965 21.9664 23.2353 21.5951 23.5734 21.2916C23.9115 20.9881 24.3098 20.7592 24.7423 20.62C25.1747 20.4807 25.6317 20.4341 26.0833 20.4833C26.8933 20.5854 27.6377 20.9811 28.1754 21.5955C28.713 22.2099 29.0064 23.0003 29 23.8167V33.5C29 33.8978 29.158 34.2794 29.4393 34.5607C29.7206 34.842 30.1022 35 30.5 35H34C34.3978 35 34.7794 34.842 35.0607 34.5607C35.342 34.2794 35.5 33.8978 35.5 33.5V23.7C35.4978 22.4226 35.2438 21.1581 34.7524 19.979C34.261 18.7999 33.542 17.7292 32.6364 16.8282C31.7308 15.9273 30.6564 15.2138 29.4748 14.7285C28.2931 14.2432 27.0274 13.9956 25.75 14Z" fill="#00FFDD"/><path d="M13 17C13 16.1716 12.3284 15.5 11.5 15.5H7C6.17157 15.5 5.5 16.1716 5.5 17V33.5C5.5 34.3284 6.17157 35 7 35H11.5C12.3284 35 13 34.3284 13 33.5V17Z" fill="#00FFDD"/></g></svg>