<svg width="41" height="40" viewBox="0 0 41 40" fill="none" xmlns="http://www.w3.org/2000/svg">
<g id="Vector">
<path d="M31.4365 21.9275C29.6003 21.9275 27.8754 21.1525 26.3129 19.8837L26.6904 18.0938L26.7029 18.0225C27.0479 16.1213 28.1154 12.925 31.4353 12.925C33.9227 12.925 35.9401 14.9438 35.9401 17.43C35.9401 19.91 33.9215 21.9287 31.4353 21.9287L31.4365 21.9275ZM31.4365 8.36625C27.2054 8.36625 23.9168 11.1137 22.5831 15.6388C20.5519 12.585 19.0019 8.91375 18.1045 5.82125H13.5471V17.6763C13.5408 20.02 11.6459 21.915 9.30223 21.9213C6.95855 21.915 5.06361 20.0138 5.05736 17.6763V5.82125H0.5V17.6763C0.5 22.5325 4.45113 26.5112 9.30223 26.5112C14.1583 26.5112 18.1045 22.5338 18.1045 17.6763V15.69C18.9894 17.5325 20.0769 19.4075 21.3981 21.0613L18.6057 34.18H23.2668L25.2917 24.6613C27.0629 25.7938 29.1004 26.51 31.4378 26.51C36.4376 26.51 40.5 22.4212 40.5 17.4275C40.5 12.4275 36.4376 8.365 31.4378 8.365L31.4365 8.36625Z" fill="#00FFDD"/>
</g>
</svg>
